<svg width="1312" height="501" viewBox="0 0 1312 501" fill="none" xmlns="http://www.w3.org/2000/svg">
<g clip-path="url(#clip0_7201_1116)">
<rect x="16" y="16" width="1280" height="468.029" rx="10" fill="white"/>
<rect x="15.9999" y="16" width="1280" height="468.029" fill="#020202"/>
<path d="M16 15.9292H764L541.5 483.929H16V15.9292Z" fill="#F2E6E6"/>
<path d="M852.615 -233.143L508 535.667V541.736L901.846 -233.143H852.615Z" fill="white"/>
<g filter="url(#filter0_d_7201_1116)">
<path d="M511.373 536.341H524.186L936.916 -232.468H911.963L511.373 536.341Z" fill="#E4002B"/>
</g>
<path d="M540.255 535.666H521.488L637.484 325.255L540.255 535.666Z" fill="#FF4A4A"/>
<path d="M911.963 -232.468H901.173L511.373 536.341L911.963 -232.468Z" fill="#A30000"/>
</g>
<rect x="8" y="8" width="1296" height="484.029" rx="18" stroke="white" stroke-opacity="0.2" stroke-width="16"/>
<defs>
<filter id="filter0_d_7201_1116" x="511.373" y="-236.514" width="433.635" height="772.855" filterUnits="userSpaceOnUse" color-interpolation-filters="sRGB">
<feFlood flood-opacity="0" result="BackgroundImageFix"/>
<feColorMatrix in="SourceAlpha" type="matrix" values="0 0 0 0 0 0 0 0 0 0 0 0 0 0 0 0 0 0 127 0" result="hardAlpha"/>
<feOffset dx="8.09273" dy="-4.04636"/>
<feComposite in2="hardAlpha" operator="out"/>
<feColorMatrix type="matrix" values="0 0 0 0 1 0 0 0 0 0.288462 0 0 0 0 0.288462 0 0 0 0.25 0"/>
<feBlend mode="normal" in2="BackgroundImageFix" result="effect1_dropShadow_7201_1116"/>
<feBlend mode="normal" in="SourceGraphic" in2="effect1_dropShadow_7201_1116" result="shape"/>
</filter>
<clipPath id="clip0_7201_1116">
<rect x="16" y="16" width="1280" height="468.029" rx="10" fill="white"/>
</clipPath>
</defs>
</svg>
